<?xml version="1.0" encoding="UTF-8"?>
<svg xmlns="http://www.w3.org/2000/svg" width="24" height="24" viewBox="0 0 24 24">
  <!-- Rounded rosette badge -->
  <path fill="#1D9BF0" d="
    M12 1.8
    C13.0 1.8 13.6 3.0 14.4 3.2
    C15.2 3.4 16.4 2.8 17.1 3.3
    C17.8 3.8 17.8 5.1 18.4 5.7
    C19.0 6.3 20.3 6.3 20.7 7.1
    C21.2 7.8 20.6 9.0 20.8 9.8
    C21.0 10.6 22.2 11.2 22.2 12
    C22.2 12.8 21.0 13.4 20.8 14.2
    C20.6 15.0 21.2 16.2 20.7 16.9
    C20.3 17.7 19.0 17.7 18.4 18.3
    C17.8 18.9 17.8 20.2 17.1 20.7
    C16.4 21.2 15.2 20.6 14.4 20.8
    C13.6 21.0 13.0 22.2 12 22.2
    C11.0 22.2 10.4 21.0 9.6 20.8
    C8.8 20.6 7.6 21.2 6.9 20.7
    C6.2 20.2 6.2 18.9 5.6 18.3
    C5.0 17.7 3.7 17.7 3.3 16.9
    C2.8 16.2 3.4 15.0 3.2 14.2
    C3.0 13.4 1.8 12.8 1.8 12
    C1.8 11.2 3.0 10.6 3.2 9.8
    C3.4 9.0 2.8 7.8 3.3 7.1
    C3.7 6.3 5.0 6.3 5.6 5.7
    C6.2 5.1 6.2 3.8 6.9 3.3
    C7.6 2.8 8.8 3.4 9.6 3.2
    C10.4 3.0 11.0 1.8 12 1.8Z"/>
  <path fill="#FFFFFF" d="M10.2 15.8L6.9 12.5L8.2 11.2L10.2 13.2L15.9 7.5L17.2 8.8Z"/>
</svg>
